<svg id="Layer_3" data-name="Layer 3" xmlns="http://www.w3.org/2000/svg" viewBox="0 0 2503.84 511"><defs><style>.cls-1{font-size:330.61px;font-family:Montserrat-Bold, Montserrat;font-weight:700;}.cls-1,.cls-10{fill:#fea832;}.cls-2{letter-spacing:-0.01em;}.cls-3{letter-spacing:0.01em;}.cls-4,.cls-5,.cls-6{fill:#fff;}.cls-5{letter-spacing:-0.01em;}.cls-6{letter-spacing:0em;}.cls-7{fill:#099;}.cls-8{fill:#ffe49f;}.cls-9{fill:#fff5f5;}.cls-11{fill:#ff873c;}.cls-12{fill:#033;}.cls-13{fill:#7ed4f2;}.cls-14{fill:#50b0d6;}.cls-15{fill:#666;}.cls-16{fill:#999;}.cls-17{fill:#08c;}.cls-18{fill:#d35e1c;}</style></defs><title>BroadCraft Light</title><text class="cls-1" transform="translate(567.83 352.04)">B<tspan class="cls-2" x="252.92" y="0">ro</tspan><tspan class="cls-3" x="606.02" y="0">a</tspan><tspan x="811.99" y="0">d</tspan><tspan class="cls-4" x="1040.77" y="0">C</tspan><tspan class="cls-5" x="1283.11" y="0">r</tspan><tspan class="cls-6" x="1423.29" y="0">aft</tspan></text><path class="cls-7" d="M499.78,261.11c0,120.92-85.89,221.78-200,244.9-16.13,3.27-32.81,4-49.9,4-17.87,0-35.3-.86-52.1-4.43a247.48,247.48,0,0,1-48.54-15.65c-18.39-8.1-35.62-19.37-51.37-31.46-19.15-14.7-36.11-31.09-50.31-50.64A248.77,248.77,0,0,1,0,261.11C0,123.1,111.88,11.22,249.89,11.22S499.78,123.1,499.78,261.11Z"/><path class="cls-8" d="M128.85,209.67H67.66a20.4,20.4,0,0,1-20.4-20.4l46.67-74.68a5.11,5.11,0,0,1,8.65,0l46.68,74.68A20.41,20.41,0,0,1,128.85,209.67Z"/><path class="cls-9" d="M128.85,209.67H102.34a20.4,20.4,0,0,1-20.4-20.4l33.65-53.86,33.67,53.86A20.41,20.41,0,0,1,128.85,209.67Z"/><path class="cls-10" d="M149.26,403.46h-102V189.27h102Z"/><path class="cls-11" d="M81.94,403.46H47.26V189.27H81.94Z"/><path class="cls-12" d="M76.3,142.79l17.63-28.2a5.11,5.11,0,0,1,8.65,0l17.63,28.2Z"/><path class="cls-13" d="M149.26,407.71V489.9A250.73,250.73,0,0,1,47.58,407.78a10.2,10.2,0,0,1,2-20.2H147a10.2,10.2,0,0,1,2.3,20.13Z"/><path class="cls-14" d="M81.94,446.14a251.62,251.62,0,0,1-34.39-38.36,10.17,10.17,0,0,1-8.18-10.59,10.42,10.42,0,0,1,10.51-9.61H81.94a10.2,10.2,0,0,0-5.16,19,10.31,10.31,0,0,1,5.16,8.86Z"/><path class="cls-15" d="M433.24,130.26l-8.38,4.84V336.58a1.75,1.75,0,0,1-1.75,1.76H379.94a1.76,1.76,0,0,1-1.76-1.76V135.1l-8.37-4.84a22.77,22.77,0,0,1-10-27.57l36.35-99a5.7,5.7,0,0,1,10.69,0l36.35,99A22.77,22.77,0,0,1,433.24,130.26ZM281.72,51.78a6,6,0,0,0-9,5.22v58.08c0,13-10.12,24.08-23.11,24.54a24,24,0,0,1-24.85-24V57a6,6,0,0,0-9-5.22,67.08,67.08,0,0,0-34.21,58.5v10.17a67.16,67.16,0,0,0,43.81,63v324.8A1.75,1.75,0,0,0,227.2,510h43.17a1.76,1.76,0,0,0,1.76-1.76V183.42a67.16,67.16,0,0,0,43.8-63V110.28A67.08,67.08,0,0,0,281.72,51.78Z"/><path class="cls-16" d="M315.93,110.28v9.17a68.34,68.34,0,0,1-43.8,63.89v103A12.22,12.22,0,0,1,260.4,298.7a12,12,0,0,1-12.18-12v-85.4a15.27,15.27,0,0,0-12.33-15,66.79,66.79,0,0,1-29.56-13.87A23.49,23.49,0,0,1,235,135.28a23.93,23.93,0,0,0,14,4.36c13.07-.13,23.74-11.49,23.74-24.56V57a6,6,0,0,1,8.89-5.26A67.11,67.11,0,0,1,315.93,110.28Zm127.29-7.59-36.35-99A5.63,5.63,0,0,0,401,0V235.75a12,12,0,0,0,23.91,0V135.1l8.38-4.84A22.77,22.77,0,0,0,443.22,102.69Z"/><path class="cls-17" d="M86.53,428.38v20.4a11.55,11.55,0,0,1-.1,1.33,249.64,249.64,0,0,1-20.3-19.67v-2.06a10.2,10.2,0,0,1,20.4,0Zm33.65-10.2a10.2,10.2,0,0,0-10.2,10.2v20.4a10.21,10.21,0,0,0,20.41,0v-20.4A10.2,10.2,0,0,0,120.18,418.18Z"/><path class="cls-10" d="M450.23,298.27h-5.51a30.48,30.48,0,0,1,7.8,20.4v88.7a250.75,250.75,0,0,1-102,82.52V318.67a30.52,30.52,0,0,1,7.79-20.4h-5.5a10.2,10.2,0,0,1,0-20.4h97.41a10.2,10.2,0,1,1,0,20.4Zm-152.74,30.6H200.08a10.2,10.2,0,0,0,0,20.4h5.51a30.48,30.48,0,0,0-7.8,20.4V505.55a251.87,251.87,0,0,0,102,.46V369.67a30.53,30.53,0,0,0-7.8-20.4h5.5a10.2,10.2,0,1,0,0-20.4Z"/><path class="cls-11" d="M222.26,339.08a10.19,10.19,0,0,0,5.05,8.8,10.31,10.31,0,0,1,5.16,8.86V510.4a250,250,0,0,1-34.68-4.85V369.68a30.46,30.46,0,0,1,7.8-20.4h-5.51a10.2,10.2,0,0,1-10.17-10.88,10.43,10.43,0,0,1,10.52-9.52h32A10.21,10.21,0,0,0,222.26,339.08ZM380.7,295c-3.28-2.24-5.69-4.75-5.69-6.95a10.2,10.2,0,0,1,10.2-10.2h-32a10.44,10.44,0,0,0-10.53,9.52,10.21,10.21,0,0,0,10.18,10.88h5.5a30.54,30.54,0,0,0-7.79,20.4V489.9a247.84,247.84,0,0,0,34.67-18.67V303.49A10.27,10.27,0,0,0,380.7,295Z"/><path class="cls-18" d="M237.06,379.86V510.67q-10.32-.53-20.4-1.87V379.86a10.2,10.2,0,1,1,20.4,0Zm33.65-10.2a10.2,10.2,0,0,0-10.2,10.2V510.77q10.32-.42,20.41-1.69V379.86A10.21,10.21,0,0,0,270.71,369.66Zm152.74-51a10.2,10.2,0,0,0-10.2,10.19V450.2a250.59,250.59,0,0,0,20.4-19.78V328.86A10.19,10.19,0,0,0,423.45,318.67Zm-43.86,0a10.19,10.19,0,0,0-10.19,10.19V480.62q10.5-5.75,20.4-12.43V328.86A10.2,10.2,0,0,0,379.59,318.67Z"/></svg>