<svg id="Layer_3" data-name="Layer 3" xmlns="http://www.w3.org/2000/svg" viewBox="0 0 2503.84 511"><defs><style>.cls-1{fill:#fea832;}.cls-2{fill:#fff;}.cls-3{fill:#099;}.cls-4{fill:#ffe49f;}.cls-5{fill:#fff5f5;}.cls-6{fill:#ff873c;}.cls-7{fill:#033;}.cls-8{fill:#7ed4f2;}.cls-9{fill:#50b0d6;}.cls-10{fill:#666;}.cls-11{fill:#999;}.cls-12{fill:#08c;}.cls-13{fill:#d35e1c;}</style></defs><title>BroadCraft Light</title><path class="cls-1" d="M796.28,252.69q11.24,14.71,11.24,36.2,0,30.42-23.64,46.78T715,352H595.27V120.61H708.34q42.31,0,65,16.2t22.64,44a55.6,55.6,0,0,1-30.74,50.91Q785,238,796.28,252.69ZM648.5,160.94v54.55h53.23q19.83,0,30.08-6.94t10.25-20.5q0-13.55-10.25-20.33t-30.08-6.78Zm94.39,143.82q10.74-6.94,10.74-21.49,0-28.77-42.65-28.76H648.5V311.7H711Q732.15,311.7,742.89,304.76Z"/><path class="cls-1" d="M918.77,178.13q15.71-6.6,36.21-6.61v47.61q-8.61-.66-11.57-.66-22.15,0-34.72,12.4t-12.56,37.19v84H844.55V174.17h49.26v23.47A57.4,57.4,0,0,1,918.77,178.13Z"/><path class="cls-1" d="M1018.29,343a87.35,87.35,0,0,1-34.88-32.57q-12.55-20.83-12.56-47.28t12.56-47.28a87.33,87.33,0,0,1,34.88-32.56q22.32-11.73,50.42-11.74T1119,183.26a87.58,87.58,0,0,1,34.71,32.56q12.57,20.84,12.56,47.28t-12.56,47.28A87.61,87.61,0,0,1,1119,343q-22.15,11.73-50.26,11.73T1018.29,343Zm83-44Q1114,285.59,1114,263.1t-12.73-35.87q-12.73-13.39-32.57-13.39T1036,227.23q-12.88,13.4-12.89,35.87T1036,299q12.9,13.39,32.73,13.39T1101.28,299Z"/><path class="cls-1" d="M1332.88,191.19Q1355,210.87,1355,250.54V352h-48.27V329.89q-14.55,24.8-54.22,24.79-20.51,0-35.54-6.94t-23-19.18a49.89,49.89,0,0,1-7.94-27.77q0-24.8,18.68-39t57.7-14.22h41q0-16.86-10.25-25.95t-30.74-9.09a89.91,89.91,0,0,0-27.94,4.46,74,74,0,0,0-23.31,12.07l-18.51-36q14.54-10.24,34.88-15.87a156.46,156.46,0,0,1,41.82-5.62Q1310.73,171.52,1332.88,191.19Zm-44,122.66a33.45,33.45,0,0,0,14.54-18V277.65h-35.37q-31.74,0-31.74,20.83a18.53,18.53,0,0,0,7.77,15.7q7.76,5.79,21.32,5.79A45,45,0,0,0,1288.91,313.85Z"/><path class="cls-1" d="M1584.8,106.72V352h-49.26v-20.5q-19.18,23.15-55.54,23.14-25.14,0-45.46-11.24a80.45,80.45,0,0,1-31.91-32.07q-11.58-20.82-11.57-48.27t11.57-48.27a80.58,80.58,0,0,1,31.91-32.07q20.32-11.23,45.46-11.24,34,0,53.23,21.49V106.72ZM1521.32,299q12.9-13.38,12.9-35.87t-12.9-35.87q-12.88-13.39-32.4-13.39-19.83,0-32.73,13.39T1443.3,263.1q0,22.48,12.89,35.87t32.73,13.39Q1508.44,312.36,1521.32,299Z"/><path class="cls-2" d="M1682.82,340.63a114.79,114.79,0,0,1-45-42.65q-16.36-27.27-16.37-61.66t16.37-61.66a114.79,114.79,0,0,1,45-42.65q28.61-15.37,64.31-15.37,30.07,0,54.38,10.58a109,109,0,0,1,40.83,30.42L1808,189.37q-23.48-27.1-58.19-27.11-21.49,0-38.35,9.43A67,67,0,0,0,1685.14,198q-9.42,16.86-9.43,38.35t9.43,38.35A67,67,0,0,0,1711.42,301q16.86,9.42,38.35,9.42,34.73,0,58.19-27.44l34.38,31.74a107.16,107.16,0,0,1-41,30.74Q1776.87,356,1746.8,356,1711.42,356,1682.82,340.63Z"/><path class="cls-2" d="M1949,178.13q15.7-6.6,36.21-6.61v47.61c-5.74-.44-9.59-.66-11.58-.66q-22.15,0-34.71,12.4t-12.56,37.19v84h-51.58V174.17H1924v23.47A57.4,57.4,0,0,1,1949,178.13Z"/><path class="cls-2" d="M2150.15,191.19q22.14,19.68,22.15,59.35V352H2124V329.89q-14.57,24.8-54.22,24.79-20.51,0-35.54-6.94t-23-19.18a49.89,49.89,0,0,1-7.94-27.77q0-24.8,18.68-39t57.69-14.22h41q0-16.86-10.25-25.95t-30.75-9.09a89.85,89.85,0,0,0-27.93,4.46,74,74,0,0,0-23.31,12.07L2010,193q14.55-10.24,34.88-15.87a156.59,156.59,0,0,1,41.83-5.62Q2128,171.52,2150.15,191.19Zm-44,122.66a33.46,33.46,0,0,0,14.55-18V277.65h-35.38q-31.73,0-31.73,20.83a18.51,18.51,0,0,0,7.77,15.7q7.76,5.79,21.32,5.79A44.89,44.89,0,0,0,2106.17,313.85Z"/><path class="cls-2" d="M2275.44,178.13h45.63v39.68h-44.3V352h-51.58V217.81h-27.44V178.13h27.44V170.2q0-30.42,18-48.27T2294,104.08a94.24,94.24,0,0,1,22,2.48,53.45,53.45,0,0,1,17.36,7.1L2319.75,151a35.34,35.34,0,0,0-20.83-6.28q-23.48,0-23.48,25.79Z"/><path class="cls-2" d="M2461.58,343.44a53,53,0,0,1-18.68,8.43,94.69,94.69,0,0,1-23.31,2.81q-31.74,0-49.1-16.2t-17.35-47.61V217.81h-27.45V178.13h27.45V134.82h51.57v43.31H2449v39.68h-44.3v72.4q0,11.25,5.79,17.36t16.36,6.12q12.24,0,20.83-6.62Z"/><path class="cls-3" d="M499.78,261.11c0,120.92-85.89,221.78-200,244.9-16.13,3.27-32.81,4-49.9,4-17.87,0-35.3-.86-52.1-4.43a247.48,247.48,0,0,1-48.54-15.65c-18.39-8.1-35.62-19.37-51.37-31.46-19.15-14.7-36.11-31.09-50.31-50.64A248.77,248.77,0,0,1,0,261.11C0,123.1,111.88,11.22,249.89,11.22S499.78,123.1,499.78,261.11Z"/><path class="cls-4" d="M128.85,209.67H67.66a20.4,20.4,0,0,1-20.4-20.4l46.67-74.68a5.11,5.11,0,0,1,8.65,0l46.68,74.68A20.41,20.41,0,0,1,128.85,209.67Z"/><path class="cls-5" d="M128.85,209.67H102.34a20.4,20.4,0,0,1-20.4-20.4l33.65-53.86,33.67,53.86A20.41,20.41,0,0,1,128.85,209.67Z"/><path class="cls-1" d="M149.26,403.46h-102V189.27h102Z"/><path class="cls-6" d="M81.94,403.46H47.26V189.27H81.94Z"/><path class="cls-7" d="M76.3,142.79l17.63-28.2a5.11,5.11,0,0,1,8.65,0l17.63,28.2Z"/><path class="cls-8" d="M149.26,407.71V489.9A250.73,250.73,0,0,1,47.58,407.78a10.2,10.2,0,0,1,2-20.2H147a10.2,10.2,0,0,1,2.3,20.13Z"/><path class="cls-9" d="M81.94,446.14a251.62,251.62,0,0,1-34.39-38.36,10.17,10.17,0,0,1-8.18-10.59,10.42,10.42,0,0,1,10.51-9.61H81.94a10.2,10.2,0,0,0-5.16,19,10.31,10.31,0,0,1,5.16,8.86Z"/><path class="cls-10" d="M433.24,130.26l-8.38,4.84V336.58a1.75,1.75,0,0,1-1.75,1.76H379.94a1.76,1.76,0,0,1-1.76-1.76V135.1l-8.37-4.84a22.77,22.77,0,0,1-10-27.57l36.35-99a5.7,5.7,0,0,1,10.69,0l36.35,99A22.77,22.77,0,0,1,433.24,130.26ZM281.72,51.78a6,6,0,0,0-9,5.22v58.08c0,13-10.12,24.08-23.11,24.54a24,24,0,0,1-24.85-24V57a6,6,0,0,0-9-5.22,67.08,67.08,0,0,0-34.21,58.5v10.17a67.16,67.16,0,0,0,43.81,63v324.8A1.75,1.75,0,0,0,227.2,510h43.17a1.76,1.76,0,0,0,1.76-1.76V183.42a67.16,67.16,0,0,0,43.8-63V110.28A67.08,67.08,0,0,0,281.72,51.78Z"/><path class="cls-11" d="M315.93,110.28v9.17a68.34,68.34,0,0,1-43.8,63.89v103A12.22,12.22,0,0,1,260.4,298.7a12,12,0,0,1-12.18-12v-85.4a15.27,15.27,0,0,0-12.33-15,66.79,66.79,0,0,1-29.56-13.87A23.49,23.49,0,0,1,235,135.28a23.93,23.93,0,0,0,14,4.36c13.07-.13,23.74-11.49,23.74-24.56V57a6,6,0,0,1,8.89-5.26A67.11,67.11,0,0,1,315.93,110.28Zm127.29-7.59-36.35-99A5.63,5.63,0,0,0,401,0V235.75a12,12,0,0,0,23.91,0V135.1l8.38-4.84A22.77,22.77,0,0,0,443.22,102.69Z"/><path class="cls-12" d="M86.53,428.38v20.4a11.55,11.55,0,0,1-.1,1.33,249.64,249.64,0,0,1-20.3-19.67v-2.06a10.2,10.2,0,0,1,20.4,0Zm33.65-10.2a10.2,10.2,0,0,0-10.2,10.2v20.4a10.21,10.21,0,0,0,20.41,0v-20.4A10.2,10.2,0,0,0,120.18,418.18Z"/><path class="cls-1" d="M450.23,298.27h-5.51a30.48,30.48,0,0,1,7.8,20.4v88.7a250.75,250.75,0,0,1-102,82.52V318.67a30.52,30.52,0,0,1,7.79-20.4h-5.5a10.2,10.2,0,0,1,0-20.4h97.41a10.2,10.2,0,1,1,0,20.4Zm-152.74,30.6H200.08a10.2,10.2,0,0,0,0,20.4h5.51a30.48,30.48,0,0,0-7.8,20.4V505.55a251.87,251.87,0,0,0,102,.46V369.67a30.53,30.53,0,0,0-7.8-20.4h5.5a10.2,10.2,0,1,0,0-20.4Z"/><path class="cls-6" d="M222.26,339.08a10.19,10.19,0,0,0,5.05,8.8,10.31,10.31,0,0,1,5.16,8.86V510.4a250,250,0,0,1-34.68-4.85V369.68a30.46,30.46,0,0,1,7.8-20.4h-5.51a10.2,10.2,0,0,1-10.17-10.88,10.43,10.43,0,0,1,10.52-9.52h32A10.21,10.21,0,0,0,222.26,339.08ZM380.7,295c-3.28-2.24-5.69-4.75-5.69-6.95a10.2,10.2,0,0,1,10.2-10.2h-32a10.44,10.44,0,0,0-10.53,9.52,10.21,10.21,0,0,0,10.18,10.88h5.5a30.54,30.54,0,0,0-7.79,20.4V489.9a247.84,247.84,0,0,0,34.67-18.67V303.49A10.27,10.27,0,0,0,380.7,295Z"/><path class="cls-13" d="M237.06,379.86V510.67q-10.32-.53-20.4-1.87V379.86a10.2,10.2,0,1,1,20.4,0Zm33.65-10.2a10.2,10.2,0,0,0-10.2,10.2V510.77q10.32-.42,20.41-1.69V379.86A10.21,10.21,0,0,0,270.71,369.66Zm152.74-51a10.2,10.2,0,0,0-10.2,10.19V450.2a250.59,250.59,0,0,0,20.4-19.78V328.86A10.19,10.19,0,0,0,423.45,318.67Zm-43.86,0a10.19,10.19,0,0,0-10.19,10.19V480.62q10.5-5.75,20.4-12.43V328.86A10.2,10.2,0,0,0,379.59,318.67Z"/></svg>