<svg id="Layer_3" data-name="Layer 3" xmlns="http://www.w3.org/2000/svg" viewBox="0 0 2503.84 511.01"><defs><style>.cls-1{font-size:330.45px;font-family:Montserrat-Bold, Montserrat;font-weight:700;}.cls-2,.cls-3,.cls-4{fill:#ff873c;}.cls-3{letter-spacing:-0.01em;}.cls-4{letter-spacing:0.01em;}.cls-5{letter-spacing:-0.01em;}.cls-6{fill:#099;}.cls-7{fill:#ffe49f;}.cls-8{fill:#fff5f5;}.cls-9{fill:#fea832;}.cls-10{fill:#033;}.cls-11{fill:#7ed4f2;}.cls-12{fill:#50b0d6;}.cls-13{fill:#666;}.cls-14{fill:#999;}.cls-15{fill:#08c;}.cls-16{fill:#d35e1c;}</style></defs><title>BroadCraft Dark</title><text class="cls-1" transform="translate(567.83 352)"><tspan class="cls-2">B</tspan><tspan class="cls-3" x="252.79" y="0">ro</tspan><tspan class="cls-4" x="605.71" y="0">a</tspan><tspan class="cls-2" x="811.58" y="0">d</tspan><tspan x="1040.24" y="0">C</tspan><tspan class="cls-5" x="1282.45" y="0">r</tspan><tspan x="1422.57" y="0">aft</tspan></text><path class="cls-6" d="M499.78,261.12c0,120.92-85.89,221.78-200,244.9-16.13,3.27-32.81,4-49.9,4-17.87,0-35.3-.86-52.1-4.42a248.17,248.17,0,0,1-48.54-15.66c-18.39-8.1-35.62-19.37-51.37-31.45-19.15-14.71-36.11-31.1-50.31-50.65A248.74,248.74,0,0,1,0,261.12c0-138,111.88-249.89,249.89-249.89S499.78,123.11,499.78,261.12Z"/><path class="cls-7" d="M128.85,209.68H67.66a20.4,20.4,0,0,1-20.4-20.4L93.93,114.6a5.11,5.11,0,0,1,8.65,0l46.68,74.68A20.4,20.4,0,0,1,128.85,209.68Z"/><path class="cls-8" d="M128.85,209.68H102.34a20.4,20.4,0,0,1-20.4-20.4l33.65-53.85,33.67,53.85A20.4,20.4,0,0,1,128.85,209.68Z"/><path class="cls-9" d="M149.26,403.47h-102V189.28h102Z"/><path class="cls-2" d="M81.94,403.47H47.26V189.28H81.94Z"/><path class="cls-10" d="M76.3,142.8l17.63-28.2a5.11,5.11,0,0,1,8.65,0l17.63,28.2Z"/><path class="cls-11" d="M149.26,407.72v82.19A250.78,250.78,0,0,1,47.58,407.8a10.2,10.2,0,0,1,2-20.21H147a10.2,10.2,0,0,1,2.3,20.13Z"/><path class="cls-12" d="M81.94,446.15a250.67,250.67,0,0,1-34.39-38.36,10.17,10.17,0,0,1-8.18-10.59,10.42,10.42,0,0,1,10.51-9.61H81.94a10.2,10.2,0,0,0-5.16,19,10.31,10.31,0,0,1,5.16,8.86Z"/><path class="cls-13" d="M433.24,130.27l-8.38,4.84V336.6a1.75,1.75,0,0,1-1.75,1.75H379.94a1.75,1.75,0,0,1-1.76-1.75V135.11l-8.37-4.84a22.75,22.75,0,0,1-10-27.56l36.35-99a5.7,5.7,0,0,1,10.69,0l36.35,99A22.75,22.75,0,0,1,433.24,130.27ZM281.72,51.79a6,6,0,0,0-9,5.22V115.1c0,13-10.12,24.07-23.11,24.53a24,24,0,0,1-24.85-24V57a6,6,0,0,0-9-5.22,67.1,67.1,0,0,0-34.21,58.51v10.16a67.16,67.16,0,0,0,43.81,63v324.8A1.75,1.75,0,0,0,227.2,510h43.17a1.76,1.76,0,0,0,1.76-1.76V183.43a67.16,67.16,0,0,0,43.8-63V110.3A67.1,67.1,0,0,0,281.72,51.79Z"/><path class="cls-14" d="M315.93,110.3v9.16a68.36,68.36,0,0,1-43.8,63.9v103a12.22,12.22,0,0,1-11.73,12.35,12,12,0,0,1-12.18-11.95v-85.4a15.28,15.28,0,0,0-12.33-15,66.68,66.68,0,0,1-29.56-13.87A23.49,23.49,0,0,1,235,135.29a23.86,23.86,0,0,0,14,4.36c13.07-.13,23.74-11.49,23.74-24.56V57a6,6,0,0,1,8.89-5.26A67.13,67.13,0,0,1,315.93,110.3Zm127.29-7.59-36.35-99A5.63,5.63,0,0,0,401,.05V235.76a12,12,0,0,0,23.91,0V135.11l8.38-4.84A22.75,22.75,0,0,0,443.22,102.71Z"/><path class="cls-15" d="M86.53,428.39v20.4a11.55,11.55,0,0,1-.1,1.33,251.21,251.21,0,0,1-20.3-19.66v-2.07a10.2,10.2,0,0,1,20.4,0Zm33.65-10.2a10.2,10.2,0,0,0-10.2,10.2v20.4a10.21,10.21,0,0,0,20.41,0v-20.4A10.21,10.21,0,0,0,120.18,418.19Z"/><path class="cls-9" d="M450.23,298.28h-5.51a30.5,30.5,0,0,1,7.8,20.4v88.7a250.67,250.67,0,0,1-102,82.52V318.68a30.54,30.54,0,0,1,7.79-20.4h-5.5a10.2,10.2,0,1,1,0-20.39h97.41a10.2,10.2,0,1,1,0,20.39Zm-152.74,30.6H200.08a10.2,10.2,0,0,0,0,20.4h5.51a30.48,30.48,0,0,0-7.8,20.4V505.56a251.87,251.87,0,0,0,102,.46V369.68a30.53,30.53,0,0,0-7.8-20.4h5.5a10.2,10.2,0,1,0,0-20.4Z"/><path class="cls-2" d="M222.26,339.09a10.19,10.19,0,0,0,5.05,8.8,10.31,10.31,0,0,1,5.16,8.86V510.41a251.53,251.53,0,0,1-34.68-4.84V369.69a30.46,30.46,0,0,1,7.8-20.4h-5.51a10.2,10.2,0,0,1-10.17-10.88,10.43,10.43,0,0,1,10.52-9.52h32A10.21,10.21,0,0,0,222.26,339.09ZM380.7,295c-3.28-2.24-5.69-4.75-5.69-7a10.2,10.2,0,0,1,10.2-10.2h-32a10.44,10.44,0,0,0-10.53,9.52,10.21,10.21,0,0,0,10.18,10.89h5.5a30.49,30.49,0,0,0-7.79,20.39V489.91a247.84,247.84,0,0,0,34.67-18.67V303.5A10.27,10.27,0,0,0,380.7,295Z"/><path class="cls-16" d="M237.06,379.87V510.68q-10.32-.53-20.4-1.87V379.87a10.2,10.2,0,0,1,20.4,0Zm33.65-10.19a10.2,10.2,0,0,0-10.2,10.19V510.78q10.32-.42,20.41-1.69V379.87A10.2,10.2,0,0,0,270.71,369.68Zm152.74-51a10.2,10.2,0,0,0-10.2,10.2V450.21a250.46,250.46,0,0,0,20.4-19.77V328.88A10.19,10.19,0,0,0,423.45,318.68Zm-43.86,0a10.19,10.19,0,0,0-10.19,10.2V480.63q10.5-5.75,20.4-12.43V328.88A10.2,10.2,0,0,0,379.59,318.68Z"/></svg>