<svg id="Layer_3" data-name="Layer 3" xmlns="http://www.w3.org/2000/svg" viewBox="0 0 2503.84 511.01"><defs><style>.cls-1{fill:#ff873c;}.cls-2{fill:#099;}.cls-3{fill:#ffe49f;}.cls-4{fill:#fff5f5;}.cls-5{fill:#fea832;}.cls-6{fill:#033;}.cls-7{fill:#7ed4f2;}.cls-8{fill:#50b0d6;}.cls-9{fill:#666;}.cls-10{fill:#999;}.cls-11{fill:#08c;}.cls-12{fill:#d35e1c;}</style></defs><title>BroadCraft Dark</title><path class="cls-1" d="M796.17,252.7q11.22,14.71,11.23,36.18,0,30.42-23.63,46.76T714.88,352H595.26V120.69h113q42.29,0,64.93,16.19t22.64,44a55.6,55.6,0,0,1-30.74,50.89Q784.93,238,796.17,252.7ZM648.46,161v54.53h53.2q19.83,0,30.07-6.94T742,188.1q0-13.54-10.24-20.32T701.66,161ZM742.8,304.75q10.74-6.94,10.74-21.48,0-28.75-42.63-28.75H648.46v57.17h62.45Q732.06,311.69,742.8,304.75Z"/><path class="cls-1" d="M918.6,178.19q15.69-6.62,36.18-6.61v47.58q-8.6-.66-11.56-.66-22.15,0-34.7,12.39T896,268.07V352H844.41V174.22h49.24v23.46A57.2,57.2,0,0,1,918.6,178.19Z"/><path class="cls-1" d="M1018.06,342.91a87.11,87.11,0,0,1-34.86-32.55q-12.56-20.81-12.55-47.25t12.55-47.25a87.18,87.18,0,0,1,34.86-32.55q22.32-11.73,50.4-11.73t50.23,11.73a87.51,87.51,0,0,1,34.69,32.55q12.55,20.82,12.56,47.25t-12.56,47.25a87.44,87.44,0,0,1-34.69,32.55q-22.15,11.74-50.23,11.73T1018.06,342.91Zm83-44q12.71-13.38,12.72-35.85T1101,227.26q-12.73-13.39-32.55-13.39t-32.72,13.39q-12.88,13.38-12.88,35.85T1035.74,299q12.9,13.4,32.72,13.39T1101,299Z"/><path class="cls-1" d="M1332.49,191.24q22.13,19.66,22.14,59.31V352h-48.25V329.86q-14.54,24.78-54.19,24.78-20.49,0-35.52-6.94t-23-19.16a49.85,49.85,0,0,1-7.93-27.76q0-24.78,18.67-39t57.66-14.21h41q0-16.86-10.25-25.94t-30.73-9.09a89.83,89.83,0,0,0-27.92,4.46,74.2,74.2,0,0,0-23.3,12.06l-18.5-36q14.53-10.25,34.86-15.87a156.36,156.36,0,0,1,41.8-5.61Q1310.35,171.58,1332.49,191.24Zm-44,122.59a33.5,33.5,0,0,0,14.54-18V277.65h-35.36q-31.73,0-31.72,20.82a18.51,18.51,0,0,0,7.76,15.69q7.77,5.79,21.32,5.79A44.86,44.86,0,0,0,1288.54,313.83Z"/><path class="cls-1" d="M1584.28,106.81V352h-49.23V331.51q-19.17,23.13-55.52,23.13-25.11,0-45.43-11.23a80.48,80.48,0,0,1-31.89-32.05q-11.58-20.82-11.57-48.25t11.57-48.24a80.44,80.44,0,0,1,31.89-32.06q20.31-11.22,45.43-11.23,34,0,53.2,21.48V106.81ZM1520.84,299q12.89-13.38,12.89-35.85t-12.89-35.85q-12.88-13.39-32.39-13.39-19.82,0-32.71,13.39t-12.89,35.85q0,22.47,12.89,35.85t32.71,13.39Q1508,312.35,1520.84,299Z"/><path d="M1682.26,340.6a114.65,114.65,0,0,1-45-42.63Q1621,270.72,1621,236.34t16.35-61.62a114.65,114.65,0,0,1,45-42.63q28.58-15.37,64.27-15.37,30.06,0,54.36,10.58a108.91,108.91,0,0,1,40.81,30.4l-34.37,31.72q-23.46-27.09-58.16-27.1-21.48,0-38.33,9.42A67,67,0,0,0,1684.57,198q-9.42,16.86-9.42,38.33t9.42,38.34A67,67,0,0,0,1710.84,301q16.85,9.41,38.33,9.41,34.69,0,58.16-27.42l34.37,31.72a107.17,107.17,0,0,1-41,30.73Q1776.27,356,1746.2,356,1710.83,356,1682.26,340.6Z"/><path d="M1948.26,178.19q15.69-6.62,36.18-6.61v47.58q-8.6-.66-11.56-.66-22.14,0-34.7,12.39t-12.56,37.18V352h-51.55V174.22h49.24v23.46A57.26,57.26,0,0,1,1948.26,178.19Z"/><path d="M2149.34,191.24q22.14,19.66,22.14,59.31V352h-48.25V329.86q-14.54,24.78-54.19,24.78-20.49,0-35.52-6.94t-23-19.16a49.93,49.93,0,0,1-7.93-27.76q0-24.78,18.67-39T2079,247.58h41q0-16.86-10.24-25.94T2079,212.55A89.83,89.83,0,0,0,2051,217a74,74,0,0,0-23.29,12.06l-18.51-36q14.54-10.25,34.86-15.87a156.36,156.36,0,0,1,41.8-5.61Q2127.2,171.58,2149.34,191.24Zm-44,122.59a33.46,33.46,0,0,0,14.54-18V277.65h-35.36q-31.72,0-31.72,20.82a18.53,18.53,0,0,0,7.76,15.69q7.77,5.79,21.32,5.79A44.86,44.86,0,0,0,2105.39,313.83Z"/><path d="M2274.57,178.19h45.61v39.65H2275.9V352h-51.55V217.84h-27.43V178.19h27.43v-7.94q0-30.39,18-48.24t50.72-17.84a94.79,94.79,0,0,1,22,2.47,53.65,53.65,0,0,1,17.34,7.11l-13.55,37.34a35.25,35.25,0,0,0-20.81-6.28q-23.48,0-23.47,25.77Z"/><path d="M2460.61,343.41a52.7,52.7,0,0,1-18.67,8.42,94.53,94.53,0,0,1-23.29,2.81q-31.72,0-49.07-16.19t-17.35-47.58v-73H2324.8V178.19h27.43V134.9h51.55v43.29h44.28v39.65h-44.28v72.37q0,11.24,5.78,17.34t16.36,6.12q12.21,0,20.81-6.61Z"/><path class="cls-2" d="M499.78,261.12c0,120.92-85.89,221.78-200,244.9-16.13,3.27-32.81,4-49.9,4-17.87,0-35.3-.86-52.1-4.42a248.17,248.17,0,0,1-48.54-15.66c-18.39-8.1-35.62-19.37-51.37-31.45-19.15-14.71-36.11-31.1-50.31-50.65A248.74,248.74,0,0,1,0,261.12c0-138,111.88-249.89,249.89-249.89S499.78,123.11,499.78,261.12Z"/><path class="cls-3" d="M128.85,209.68H67.66a20.4,20.4,0,0,1-20.4-20.4L93.93,114.6a5.11,5.11,0,0,1,8.65,0l46.68,74.68A20.4,20.4,0,0,1,128.85,209.68Z"/><path class="cls-4" d="M128.85,209.68H102.34a20.4,20.4,0,0,1-20.4-20.4l33.65-53.85,33.67,53.85A20.4,20.4,0,0,1,128.85,209.68Z"/><path class="cls-5" d="M149.26,403.47h-102V189.28h102Z"/><path class="cls-1" d="M81.94,403.47H47.26V189.28H81.94Z"/><path class="cls-6" d="M76.3,142.8l17.63-28.2a5.11,5.11,0,0,1,8.65,0l17.63,28.2Z"/><path class="cls-7" d="M149.26,407.72v82.19A250.78,250.78,0,0,1,47.58,407.8a10.2,10.2,0,0,1,2-20.21H147a10.2,10.2,0,0,1,2.3,20.13Z"/><path class="cls-8" d="M81.94,446.15a250.67,250.67,0,0,1-34.39-38.36,10.17,10.17,0,0,1-8.18-10.59,10.42,10.42,0,0,1,10.51-9.61H81.94a10.2,10.2,0,0,0-5.16,19,10.31,10.31,0,0,1,5.16,8.86Z"/><path class="cls-9" d="M433.24,130.27l-8.38,4.84V336.6a1.75,1.75,0,0,1-1.75,1.75H379.94a1.75,1.75,0,0,1-1.76-1.75V135.11l-8.37-4.84a22.75,22.75,0,0,1-10-27.56l36.35-99a5.7,5.7,0,0,1,10.69,0l36.35,99A22.75,22.75,0,0,1,433.24,130.27ZM281.72,51.79a6,6,0,0,0-9,5.22V115.1c0,13-10.12,24.07-23.11,24.53a24,24,0,0,1-24.85-24V57a6,6,0,0,0-9-5.22,67.1,67.1,0,0,0-34.21,58.51v10.16a67.16,67.16,0,0,0,43.81,63v324.8A1.75,1.75,0,0,0,227.2,510h43.17a1.76,1.76,0,0,0,1.76-1.76V183.43a67.16,67.16,0,0,0,43.8-63V110.3A67.1,67.1,0,0,0,281.72,51.79Z"/><path class="cls-10" d="M315.93,110.3v9.16a68.36,68.36,0,0,1-43.8,63.9v103a12.22,12.22,0,0,1-11.73,12.35,12,12,0,0,1-12.18-11.95v-85.4a15.28,15.28,0,0,0-12.33-15,66.68,66.68,0,0,1-29.56-13.87A23.49,23.49,0,0,1,235,135.29a23.86,23.86,0,0,0,14,4.36c13.07-.13,23.74-11.49,23.74-24.56V57a6,6,0,0,1,8.89-5.26A67.13,67.13,0,0,1,315.93,110.3Zm127.29-7.59-36.35-99A5.63,5.63,0,0,0,401,.05V235.76a12,12,0,0,0,23.91,0V135.11l8.38-4.84A22.75,22.75,0,0,0,443.22,102.71Z"/><path class="cls-11" d="M86.53,428.39v20.4a11.55,11.55,0,0,1-.1,1.33,251.21,251.21,0,0,1-20.3-19.66v-2.07a10.2,10.2,0,0,1,20.4,0Zm33.65-10.2a10.2,10.2,0,0,0-10.2,10.2v20.4a10.21,10.21,0,0,0,20.41,0v-20.4A10.21,10.21,0,0,0,120.18,418.19Z"/><path class="cls-5" d="M450.23,298.28h-5.51a30.5,30.5,0,0,1,7.8,20.4v88.7a250.67,250.67,0,0,1-102,82.52V318.68a30.54,30.54,0,0,1,7.79-20.4h-5.5a10.2,10.2,0,1,1,0-20.39h97.41a10.2,10.2,0,1,1,0,20.39Zm-152.74,30.6H200.08a10.2,10.2,0,0,0,0,20.4h5.51a30.48,30.48,0,0,0-7.8,20.4V505.56a251.87,251.87,0,0,0,102,.46V369.68a30.53,30.53,0,0,0-7.8-20.4h5.5a10.2,10.2,0,1,0,0-20.4Z"/><path class="cls-1" d="M222.26,339.09a10.19,10.19,0,0,0,5.05,8.8,10.31,10.31,0,0,1,5.16,8.86V510.41a251.53,251.53,0,0,1-34.68-4.84V369.69a30.46,30.46,0,0,1,7.8-20.4h-5.51a10.2,10.2,0,0,1-10.17-10.88,10.43,10.43,0,0,1,10.52-9.52h32A10.21,10.21,0,0,0,222.26,339.09ZM380.7,295c-3.28-2.24-5.69-4.75-5.69-7a10.2,10.2,0,0,1,10.2-10.2h-32a10.44,10.44,0,0,0-10.53,9.52,10.21,10.21,0,0,0,10.18,10.89h5.5a30.49,30.49,0,0,0-7.79,20.39V489.91a247.84,247.84,0,0,0,34.67-18.67V303.5A10.27,10.27,0,0,0,380.7,295Z"/><path class="cls-12" d="M237.06,379.87V510.68q-10.32-.53-20.4-1.87V379.87a10.2,10.2,0,0,1,20.4,0Zm33.65-10.19a10.2,10.2,0,0,0-10.2,10.19V510.78q10.32-.42,20.41-1.69V379.87A10.2,10.2,0,0,0,270.71,369.68Zm152.74-51a10.2,10.2,0,0,0-10.2,10.2V450.21a250.46,250.46,0,0,0,20.4-19.77V328.88A10.19,10.19,0,0,0,423.45,318.68Zm-43.86,0a10.19,10.19,0,0,0-10.19,10.2V480.63q10.5-5.75,20.4-12.43V328.88A10.2,10.2,0,0,0,379.59,318.68Z"/></svg>